<svg xmlns="http://www.w3.org/2000/svg" width="48.751" height="49.422" viewBox="0 0 48.751 49.422">
  <path id="Path_48" data-name="Path 48" d="M92.321,111.689A25.343,25.343,0,0,0,68.1,129.065h3.59a20.7,20.7,0,0,1,1.335-2.873H79.93a29.112,29.112,0,0,0-.754,2.873h3.5a27.013,27.013,0,0,1,.882-2.873h6.667v2.873H93.6v-2.873h7.2a25.2,25.2,0,0,1,.988,2.873h3.5a28.261,28.261,0,0,0-.845-2.873h7.172a20.7,20.7,0,0,1,1.335,2.873h3.582A25.334,25.334,0,0,0,92.321,111.689Zm5.1,3.975a22.01,22.01,0,0,1,11.848,7.15H103A23.7,23.7,0,0,0,97.419,115.663Zm-11.185.249a22.437,22.437,0,0,0-4.978,6.9H75.374A21.982,21.982,0,0,1,86.235,115.912ZM93.6,117a19.473,19.473,0,0,1,5.453,5.815H93.6Zm-3.379.023v5.792H85.134A17.887,17.887,0,0,1,90.224,117.021Zm-21.117,15.31a1.444,1.444,0,0,0-.845.234.694.694,0,0,0-.339.581,2.23,2.23,0,0,0,.158.709l1.795,5.159c.055.154.118.328.189.513a1.764,1.764,0,0,0,.287.49,1.179,1.179,0,0,0,.475.332,2,2,0,0,0,.754.121,1.725,1.725,0,0,0,.9-.2,1.231,1.231,0,0,0,.475-.445,8.1,8.1,0,0,0,.332-.762l1.606-4.525,1.6,4.548c.133.337.239.586.324.747a1.2,1.2,0,0,0,.468.445,1.773,1.773,0,0,0,.905.2,1.747,1.747,0,0,0,.928-.2,1.215,1.215,0,0,0,.46-.468,7.468,7.468,0,0,0,.309-.784l1.795-5.159a2.479,2.479,0,0,0,.166-.709.689.689,0,0,0-.347-.581,1.453,1.453,0,0,0-.837-.234,1.328,1.328,0,0,0-.762.181,1.033,1.033,0,0,0-.362.4,4.215,4.215,0,0,0-.2.566l-1.267,4.389-1.418-4.11a7.69,7.69,0,0,0-.324-.754,1.3,1.3,0,0,0-.475-.46,1.8,1.8,0,0,0-.958-.211,1.9,1.9,0,0,0-.958.2,1.31,1.31,0,0,0-.505.475,5.473,5.473,0,0,0-.324.747l-1.41,4.11-1.275-4.42a2.508,2.508,0,0,0-.385-.807A1.115,1.115,0,0,0,69.107,132.331Zm17.369,0a1.444,1.444,0,0,0-.845.234.694.694,0,0,0-.339.581,2.286,2.286,0,0,0,.166.709l1.795,5.159c.055.154.118.328.189.513a1.745,1.745,0,0,0,.279.49,1.179,1.179,0,0,0,.475.332,2,2,0,0,0,.754.121,1.755,1.755,0,0,0,.905-.2,1.2,1.2,0,0,0,.468-.445,8.1,8.1,0,0,0,.332-.762l1.606-4.525,1.6,4.548c.133.337.239.586.324.747a1.2,1.2,0,0,0,.468.445,1.773,1.773,0,0,0,.905.2,1.747,1.747,0,0,0,.928-.2,1.215,1.215,0,0,0,.46-.468,7.469,7.469,0,0,0,.309-.784l1.795-5.159a2.479,2.479,0,0,0,.166-.709.689.689,0,0,0-.347-.581,1.453,1.453,0,0,0-.837-.234,1.328,1.328,0,0,0-.762.181,1.033,1.033,0,0,0-.362.4,4.216,4.216,0,0,0-.2.566l-1.267,4.389-1.418-4.11a7.69,7.69,0,0,0-.324-.754,1.267,1.267,0,0,0-.468-.46,1.8,1.8,0,0,0-.958-.211,1.932,1.932,0,0,0-.965.2,1.31,1.31,0,0,0-.505.475,5.474,5.474,0,0,0-.324.747l-1.41,4.11-1.275-4.42a2.506,2.506,0,0,0-.377-.807A1.133,1.133,0,0,0,86.476,132.331Zm17.369,0a1.444,1.444,0,0,0-.845.234.694.694,0,0,0-.339.581,2.286,2.286,0,0,0,.166.709l1.795,5.159c.055.154.118.328.189.513a1.745,1.745,0,0,0,.279.49,1.179,1.179,0,0,0,.475.332,2,2,0,0,0,.754.121,1.755,1.755,0,0,0,.905-.2,1.2,1.2,0,0,0,.468-.445,7.727,7.727,0,0,0,.339-.762l1.6-4.525,1.6,4.548c.133.337.239.586.324.747a1.2,1.2,0,0,0,.468.445,1.773,1.773,0,0,0,.905.2,1.747,1.747,0,0,0,.928-.2,1.216,1.216,0,0,0,.46-.468,7.473,7.473,0,0,0,.309-.784l1.795-5.159a2.479,2.479,0,0,0,.166-.709.681.681,0,0,0-.339-.581,1.478,1.478,0,0,0-.845-.234,1.328,1.328,0,0,0-.762.181,1.033,1.033,0,0,0-.362.4,4.214,4.214,0,0,0-.2.566l-1.259,4.389-1.425-4.11a7.69,7.69,0,0,0-.324-.754,1.267,1.267,0,0,0-.468-.46,1.8,1.8,0,0,0-.958-.211,1.932,1.932,0,0,0-.965.2,1.31,1.31,0,0,0-.505.475,5.472,5.472,0,0,0-.324.747l-1.41,4.11-1.267-4.42a2.508,2.508,0,0,0-.385-.807A1.133,1.133,0,0,0,103.845,132.331ZM67.968,143.289a25.55,25.55,0,0,0,48.705,0h-3.567a20.811,20.811,0,0,1-1.222,2.813h-7.24a28.742,28.742,0,0,0,.777-2.813h-3.447a23.617,23.617,0,0,1-.882,2.813H93.6v-2.813H90.224V146.1h-6.84a28.586,28.586,0,0,1-.8-2.813H79.115c.194.952.432,1.892.7,2.813H72.757a20.849,20.849,0,0,1-1.229-2.813h-3.56Zm7.006,6.192h6.056a21.454,21.454,0,0,0,4.985,7.353A21.933,21.933,0,0,1,74.975,149.481Zm9.82,0h5.43v6.313A16.1,16.1,0,0,1,84.794,149.481Zm8.809,0H99.41a18.5,18.5,0,0,1-5.807,6.154Zm9.691,0h6.373a21.975,21.975,0,0,1-12.414,7.7,22.746,22.746,0,0,0,6.041-7.7Z" transform="translate(-67.923 -111.689)" fill="#8c51a5"/>
</svg>
