<?xml version="1.0" encoding="UTF-8"?>
<!DOCTYPE svg PUBLIC "-//W3C//DTD SVG 1.1//EN" "http://www.w3.org/Graphics/SVG/1.1/DTD/svg11.dtd">
<!-- Creator: CorelDRAW X8 -->
<svg xmlns="http://www.w3.org/2000/svg" xml:space="preserve" width="140.673mm" height="235.781mm" version="1.1" style="shape-rendering:geometricPrecision; text-rendering:geometricPrecision; image-rendering:optimizeQuality; fill-rule:evenodd; clip-rule:evenodd"
viewBox="0 0 14058 23563"
 xmlns:xlink="http://www.w3.org/1999/xlink">
 <defs>
  <style type="text/css">
   <![CDATA[
    .fil6 {fill:black}
    .fil0 {fill:#5E38B6}
    .fil3 {fill:#6D3813}
    .fil1 {fill:#737EA0}
    .fil2 {fill:#C4A21B}
    .fil4 {fill:#E5C1A2}
    .fil5 {fill:#E5C2A4}
   ]]>
  </style>
 </defs>
 <g id="Warstwa_x0020_2">
  <metadata id="CorelCorpID_0Corel-Layer"/>
  <g id="_2711898715952">
   <path class="fil0" d="M3619 5625l270 -39c-32,-93 -124,-249 -37,-335 153,-89 230,172 245,318l595 -38c319,1 829,-74 1195,-74 236,0 415,-20 636,-19 131,1 186,-18 298,-20l1886 -37c104,-9 186,-18 318,-18l0 29c37,-64 43,-163 99,-248 45,-70 142,-162 223,-122 76,91 -29,210 -55,316l387 -4 2530 -94c146,-22 343,-21 497,-26l490 -32c84,-12 167,1 251,-11 141,-18 564,-28 599,-204 23,-111 9,-400 -7,-508 -44,-289 11,-1672 11,-2084 0,-355 -1,-710 0,-1065 1,-115 -17,-145 -19,-242 -3,-90 5,-166 -8,-254 -70,-471 31,-521 -229,-556 -478,-64 -1004,-67 -1455,-132l-494 -29c-106,-1 -129,-20 -241,-20 -88,0 -176,2 -263,1 -108,-1 -141,-20 -261,-19 -366,1 -674,-19 -1027,-19 -195,0 -323,-19 -505,-18l-522 -20c-363,-11 -679,20 -1047,20l-1553 2c-89,-9 -133,17 -239,17l-767 18c-181,-1 -332,38 -503,38 -305,0 -1120,75 -1452,117l-2157 215c-101,12 -153,16 -250,30 -201,30 -712,107 -868,179 -236,109 -185,270 -186,598 -1,118 13,168 18,261 9,164 0,356 0,523 0,87 0,175 0,262 0,112 18,136 20,242 1,86 -4,176 -2,262 3,98 20,127 19,243 0,154 35,353 38,504 9,367 81,1040 114,1455 11,151 46,338 54,487 26,492 -39,557 502,502 141,-14 315,-50 454,-69 454,-64 968,-137 1434,-173l964 -110z"/>
   <path class="fil1" d="M4407 16588l-186 724c-117,493 -290,1036 -314,1554 -8,188 -132,934 -150,1251 -16,301 -109,1072 -112,1289 -2,155 1,312 1,467 0,143 -42,339 14,416 48,65 195,151 295,172 114,24 323,24 419,36 262,21 467,60 710,98 216,29 330,62 504,-31 0,-289 8,-567 35,-824 16,-156 21,-241 45,-384 108,-641 213,-1246 291,-1895 79,-663 265,-1495 371,-2225l136 -779c29,125 94,240 138,366 107,308 135,437 271,776 53,133 92,238 140,383l131 392c53,158 218,668 233,812 10,86 10,174 18,244 11,96 15,145 24,238 21,215 18,529 16,768l62 722c45,271 136,566 216,830 62,202 79,272 245,278 381,15 660,-23 972,-79 189,-29 360,-76 536,-131 196,-62 295,-140 435,-219 63,-276 -66,-568 -120,-889 -51,-310 -76,-622 -118,-929 -59,-443 60,-930 -114,-1454 -66,-199 -381,-860 -489,-1099l-160 -363c-54,-131 -107,-233 -162,-360 -134,-308 -306,-824 -470,-1100 -70,-119 -139,-225 -197,-347 -77,-67 -115,-39 -207,2l-667 285c-302,149 -1538,568 -1890,650 -172,41 -358,68 -530,105 -50,11 -223,43 -259,59 -95,44 -38,128 -113,191z"/>
   <path class="fil2" d="M3665 10839c-31,40 -51,72 -86,117 -38,50 -53,64 -91,114 -55,72 -138,179 -160,270l921 1097c47,49 54,73 103,121 64,64 62,41 62,163 0,115 -151,728 -194,949l-140 756c-34,170 -125,833 -109,996 36,360 -6,1166 436,1166 75,-63 18,-147 113,-191 36,-16 209,-48 259,-59 172,-37 358,-64 530,-105 352,-82 1588,-501 1890,-650l667 -285c92,-41 130,-69 207,-2l18 -2238c0,-75 3,-202 30,-251 48,-86 691,-502 814,-587l314 -264 -298 -600c-49,-32 -168,-304 -218,-377 -45,-64 -79,-118 -120,-179 -42,-62 -107,-128 -130,-189 -162,-13 -46,-10 -276,135 -269,169 -352,202 -695,202 -149,0 -294,-22 -387,-75 -99,145 -340,215 -565,230 -193,13 -530,-48 -607,-174 -487,91 -654,-10 -1050,-230 -309,-172 -285,-195 -458,-382 -30,-32 -53,-52 -85,-84 -60,-60 -110,-137 -214,-145 -47,188 -121,269 -206,406 -43,69 -87,119 -135,183 -40,51 -84,129 -140,162z"/>
   <path class="fil3" d="M5676 9752c-76,-169 -131,-261 -168,-480 -131,-30 -176,-35 -243,-130 -129,-183 -163,-658 222,-668l-2 -244c353,-155 497,-215 714,-474 82,41 121,102 212,165 212,145 529,269 717,385 35,260 -6,151 179,133 136,-14 202,67 211,192 21,283 -85,408 -281,508 -14,330 -56,392 -172,632 278,138 829,30 953,-316 44,-122 26,-272 -39,-394 92,-49 196,-105 250,-198 54,-95 89,-221 61,-374 -40,-221 -251,-432 -460,-436 3,-37 147,-388 43,-604 -23,-48 -65,-108 -106,-136 -112,-77 -203,-85 -386,-83 -184,2 -245,59 -354,132 0,-160 135,-806 -266,-875 -246,-42 -479,124 -608,281 -43,52 -98,115 -116,183l-38 0c-33,-144 -196,-314 -361,-368 -232,-76 -399,-17 -549,111 -258,222 -314,657 -304,986 2,91 17,86 19,167 -74,17 -100,55 -150,93 -345,269 -308,833 150,1140 -198,412 258,940 710,747 57,-24 101,-69 162,-75z"/>
   <path class="fil4" d="M5676 9752c270,372 449,295 485,455 22,97 16,357 -3,451 -29,136 -127,193 -205,271 77,126 414,187 607,174 225,-15 466,-85 565,-230 -128,-27 -255,-107 -350,-179 -149,-112 -151,-136 -184,-358 -34,-223 47,-156 206,-290 90,-76 203,-183 268,-275 116,-240 158,-302 172,-632 196,-100 302,-225 281,-508 -9,-125 -75,-206 -211,-192 -185,18 -144,127 -179,-133 -188,-116 -505,-240 -717,-385 -91,-63 -130,-124 -212,-165 -217,259 -361,319 -714,474l2 244c-385,10 -351,485 -222,668 67,95 112,100 243,130 37,219 92,311 168,480z"/>
   <path class="fil5" d="M9025 5392c-57,137 -77,181 -2,365 16,39 19,36 29,65 15,41 27,110 30,157 5,119 0,254 -1,374 0,281 35,368 9,728l10 710c1,150 -21,226 -38,354 -29,211 -76,432 -106,642 -81,564 -43,713 -259,1272 -39,101 -57,184 -101,272 -42,84 -88,180 -113,280 23,61 88,127 130,189 41,61 75,115 120,179 50,73 169,345 218,377 514,-887 519,-1485 640,-2420 55,-426 30,-935 67,-1260l-80 -1222c-15,-106 -76,-505 -52,-589 48,-169 118,-338 153,-531l-387 4c26,-106 131,-225 55,-316 -81,-40 -178,52 -223,122 -56,85 -62,184 -99,248z"/>
   <path class="fil5" d="M3619 5625c-13,86 17,60 32,139 22,114 -95,348 -139,455 -37,93 -66,203 -102,309 -313,939 -563,2620 -137,3467 76,153 106,316 257,564 57,94 88,182 135,280 56,-33 100,-111 140,-162 48,-64 92,-114 135,-183 85,-137 159,-218 206,-406 -90,-70 -177,-323 -211,-438 -129,-438 -184,-1356 -158,-1765 55,-890 274,-1509 320,-2316 -15,-146 -92,-407 -245,-318 -87,86 5,242 37,335l-270 39z"/>
   <path class="fil6" d="M5084 22595c-243,-38 -448,-77 -710,-98 7,101 -3,31 27,97 80,176 226,363 361,498 92,92 150,150 252,234 77,64 202,150 294,191 389,174 482,-181 146,-538 -51,-54 -85,-58 -130,-113 -47,-56 -59,-75 -114,-129 -49,-48 -93,-82 -126,-142z"/>
   <path class="fil6" d="M8932 22187c3,3 9,3 11,9 1,6 8,7 10,9 3,3 18,14 22,17l188 93c212,71 772,128 997,96 255,-37 417,-216 272,-357 -74,-71 -405,-191 -529,-217 -140,79 -239,157 -435,219 -176,55 -347,102 -536,131z"/>
  </g>
 </g>
</svg>
