<?xml version="1.0" encoding="UTF-8"?>
<!DOCTYPE svg PUBLIC "-//W3C//DTD SVG 1.1//EN" "http://www.w3.org/Graphics/SVG/1.1/DTD/svg11.dtd">
<!-- Creator: CorelDRAW X8 -->
<svg xmlns="http://www.w3.org/2000/svg" xml:space="preserve" width="210mm" height="297mm" version="1.1" style="shape-rendering:geometricPrecision; text-rendering:geometricPrecision; image-rendering:optimizeQuality; fill-rule:evenodd; clip-rule:evenodd"
viewBox="0 0 21000 29700"
 xmlns:xlink="http://www.w3.org/1999/xlink">
 <defs>
  <style type="text/css">
   <![CDATA[
    .fil14 {fill:#483603}
    .fil8 {fill:#604400}
    .fil1 {fill:#625A13}
    .fil0 {fill:#647353}
    .fil3 {fill:#766619}
    .fil9 {fill:#7A5E16}
    .fil10 {fill:#886517}
    .fil4 {fill:#89911A}
    .fil13 {fill:#926411}
    .fil5 {fill:#C0B03A}
    .fil16 {fill:#C1BA39}
    .fil15 {fill:#D4A929}
    .fil18 {fill:#D8D5EA}
    .fil7 {fill:#D8D5EE}
    .fil20 {fill:#DB946B}
    .fil19 {fill:#DCA74D}
    .fil21 {fill:#DDA84D}
    .fil17 {fill:#E6BD7C}
    .fil2 {fill:#F0C838}
    .fil6 {fill:#F2B416}
    .fil11 {fill:#F2CB8B}
    .fil12 {fill:#F4CD8E}
   ]]>
  </style>
 </defs>
 <g id="Warstwa_x0020_1">
  <metadata id="CorelCorpID_0Corel-Layer"/>
  <g id="_2711905158816">
   <path class="fil0" d="M15093 5829c-32,85 -176,262 -243,304 -67,42 -146,53 -236,40 -59,-8 -164,-34 -187,-76 -57,4 -157,64 -205,89 -53,63 -191,90 -290,106 -29,-19 -3,-2 -27,-22 -359,-304 -521,-104 -733,-19 -34,-63 -36,-128 -84,-204 -102,-162 -246,-198 -326,-25 -41,89 -32,146 -15,241l-61 12c-64,37 -104,56 -128,134 -28,88 7,136 41,191 -40,45 -97,93 -115,182 -18,97 23,161 98,185l-11 38c-54,121 -29,272 87,309 140,46 235,-65 318,-101 75,91 301,122 446,103 219,-28 248,-53 397,-155l6 187 134 967c55,308 135,606 236,870 148,382 316,775 500,1142 241,480 231,449 508,866 110,165 220,328 342,484l255 304c86,87 335,334 459,357 165,31 259,-45 351,-168 93,-125 139,-213 186,-372 18,-60 47,-167 52,-228l66 -506c68,-15 172,-15 251,-26 71,-10 171,-43 230,-43 133,-62 350,-76 544,-221 230,-172 253,-361 320,-455 1,-60 59,-231 72,-326 22,-170 -17,-239 -21,-378 42,-14 200,-51 224,-45 42,-34 112,-43 171,-63 164,-55 342,-122 469,-235 227,-202 369,-443 441,-743 83,-342 -201,-265 -390,-286l-680 -23c-232,-1 -814,-114 -1006,-178 -243,-82 -608,-232 -837,-348 -278,-141 -541,-199 -696,-477l-164 -316c115,55 281,-43 302,-134l22 0c10,37 26,44 53,70 60,59 134,128 251,101 160,-37 174,-163 121,-311 -16,-25 22,-32 46,-59 73,-84 17,-211 -46,-281 11,-30 -3,4 11,-22l24 -57c17,-93 -43,-172 -124,-214l14 -28c36,-112 -35,-199 -154,-176 -105,20 -150,81 -207,149l-33 -33c-248,-285 -593,-25 -638,55l-391 -132z"/>
   <path class="fil1" d="M12997 27957c26,-12 697,-24 801,-30 261,-16 521,-68 771,-81 259,-11 591,-78 825,-148 166,-49 219,-20 340,-140 195,-196 29,-494 -86,-691 -84,-143 -290,-430 -417,-555 -24,-23 -41,-38 -61,-63 -68,-85 -139,-134 -177,-191 218,18 495,41 554,-239 56,-265 -268,-774 -397,-968 127,11 275,44 345,-146 55,-151 -25,-282 -85,-394 -243,-452 -353,-533 -650,-902l-122 -135c-213,-228 -186,-218 -446,-458 -113,-104 -224,-215 -358,-302 -99,-63 -72,-41 -255,41l-252 150 -281 233c-307,296 -964,1077 -793,1481 51,122 78,97 115,153l-256 380c-144,239 -549,901 -222,1148 46,35 179,83 255,47 -12,42 -26,39 -53,71l-176 215c-136,174 -329,426 -427,623 -69,139 -112,217 -91,408 31,283 361,404 613,425 408,32 543,68 986,68z"/>
   <path class="fil2" d="M5603 20043c28,48 25,154 36,221 13,79 47,134 28,212 -44,25 -175,40 -236,7 -50,-27 -49,-148 -56,-211 -6,-57 -18,-214 19,-250 44,-41 179,-5 209,21zm7316 -73c-28,-367 373,-343 382,-10 3,90 -16,112 -38,178 -23,67 -49,104 -145,90 -100,-14 -191,-150 -199,-258zm-4834 -2023c105,-19 212,14 273,68 81,72 97,144 112,247 32,220 35,446 54,669 17,200 96,498 -94,565 -57,20 -581,36 -676,35 -240,-3 -498,62 -490,-231 4,-183 42,-466 86,-639 59,-232 138,-341 270,-456 111,-97 268,-222 465,-258zm1354 -228c422,-42 1010,109 1245,405 161,203 602,849 567,1086 -23,154 -189,176 -323,224 -129,46 -287,97 -427,120 -346,58 -691,56 -1045,32 -499,-33 -523,11 -625,-480 -58,-279 -126,-709 -107,-1002 6,-98 40,-130 85,-196 119,-175 375,-163 630,-189zm-4289 3055c-8,103 -59,240 -43,335 -23,59 4,156 26,197 80,147 305,195 476,239 138,36 676,112 848,112 -40,-451 123,-696 423,-930 85,-67 208,-126 350,-124 364,7 630,335 735,643 57,167 40,239 58,411l421 -59c268,-45 139,-65 428,-64 71,0 91,-11 155,-12 153,-2 342,7 483,-9l780 -47c56,0 113,1 169,1 -1,-390 352,-888 821,-854 225,16 485,136 587,248 57,62 117,167 156,270 19,52 35,109 45,167 8,45 -1,154 21,181 58,21 401,-12 502,-12 209,0 309,-14 463,-74 143,-55 254,-81 323,-213 17,-32 26,-62 41,-93l64 -204c45,-283 49,-292 16,-602 -32,-302 32,-593 -349,-723 -78,-26 -139,-29 -245,-24 -184,10 -273,33 -492,34 -85,1 -164,-14 -244,-23 -59,-7 -176,-22 -228,-41 -144,-52 -336,-265 -406,-398 -35,-65 -57,-112 -84,-184l-63 -205c-68,-204 -229,-400 -373,-565 -146,-167 -175,-184 -364,-306 -111,-72 -215,-139 -345,-191 -629,-251 -1200,-89 -1867,-18 -351,38 -524,110 -818,255 -239,119 -392,317 -487,586 -55,155 -54,85 -102,288 -10,43 -20,62 -32,103 -39,137 -71,288 -124,412 -58,137 -107,202 -270,266 -64,26 -121,48 -200,68l-433 103c-244,44 -165,-7 -436,100 -252,100 -273,263 -311,494l-75 462z"/>
   <path class="fil3" d="M1823 16930c236,112 373,118 647,51 297,-86 507,-294 621,-568 19,-44 32,-91 50,-129 87,7 282,109 525,-11 274,-135 493,-491 425,-817 -55,-269 -141,-410 -157,-479 33,-49 71,-83 118,-161 182,-305 256,-825 102,-1131 -64,-127 -154,-231 -265,-305 58,-121 34,-414 -15,-566 -92,-281 -365,-574 -680,-615 -262,-35 -358,102 -467,175 -64,-43 -159,-325 -647,-324 -130,1 -182,9 -273,52 -112,55 -188,121 -261,220 -94,127 -110,162 -182,309 -76,157 4,75 -205,118 -230,48 -467,224 -556,417 -132,287 -82,755 190,975 49,39 148,106 214,121l-204 221 -168 256c-152,273 -250,712 -77,1011 171,297 514,375 821,314 40,-8 53,-15 97,-15 0,199 -54,268 61,543 52,126 165,270 286,338z"/>
   <path class="fil1" d="M18847 25462c207,31 347,57 570,46 163,11 407,-66 552,-161 58,-38 89,-66 139,-106 84,-68 161,-166 223,-258 278,-418 361,-1005 434,-1509 40,-275 43,-631 -4,-916 -59,-349 -162,-845 -358,-1106 -218,-291 -527,-495 -900,-552 -123,-19 -319,-39 -464,-24 -363,39 -607,156 -853,355 -130,106 -259,245 -355,381 -214,303 -328,672 -403,1049 -39,191 -40,251 -63,429 -11,76 -21,389 -10,461 23,151 20,263 60,431 65,273 138,500 270,702l152 206c76,97 223,220 324,290 161,111 493,268 686,282z"/>
   <path class="fil4" d="M16088 22486c184,12 384,59 570,9 37,9 3,5 46,1 62,-5 260,-63 308,-83 125,-50 287,-192 386,-295 167,-174 257,-319 362,-543l130 -317c67,-170 109,-389 108,-584 -1,-154 26,-225 2,-437 -36,-316 51,-392 -62,-843 -111,-443 -327,-842 -640,-1170l-251 -207c-336,-229 -700,-190 -973,73 -127,123 -201,237 -288,383 -242,402 -315,732 -439,1158 -45,154 -119,552 -164,741 -85,359 -124,921 -49,1245 107,465 474,814 954,869z"/>
   <path class="fil5" d="M17764 4522l0 0zm-2194 -1285l41 20c166,67 329,163 433,303 122,162 149,413 43,615 -163,306 -654,525 -982,602 -1,64 -23,170 -30,229 -11,80 -23,151 -26,231 -3,70 -16,167 -22,235 -7,91 0,169 -17,256l83 101 391 132c45,-80 390,-340 638,-55l33 33c57,-68 102,-129 207,-149 119,-23 190,64 154,176 74,-16 396,4 499,4 163,0 336,-9 498,-24 142,-14 308,-39 445,-68 72,-16 146,-28 218,-39l233 -44c10,-21 -13,6 12,-14l311 -168c42,-25 68,-42 111,-68l296 -217c232,-188 637,-633 519,-1025 -121,-405 -669,-367 -980,-263 -323,109 -429,187 -695,344 -78,47 -139,96 -219,138l408 -608c28,-45 50,-80 75,-126 146,-262 559,-983 76,-1121 -276,-79 -720,148 -924,284 -43,29 -78,56 -116,85 -40,31 -74,63 -116,96 -276,216 -630,700 -836,1008 -20,31 -64,108 -87,125 67,-287 130,-489 193,-801 33,-163 191,-949 -7,-1071 -153,-95 -364,142 -447,248 -40,50 -73,83 -110,136 -36,54 -67,96 -105,152 -76,115 -116,208 -159,276 -26,39 4,19 -39,32z"/>
   <path class="fil6" d="M14242 5214c-26,-27 -59,-47 -91,-73 -140,-114 -138,-118 -263,-238 -88,23 -173,69 -279,30 -186,-69 -184,-320 -117,-460 83,-174 52,-38 12,-222 151,-49 341,-261 422,-361 181,-223 258,-459 284,-494 20,33 40,73 64,102 194,240 676,391 970,473 196,54 10,553 -248,538l-50 303c51,-1 115,-21 159,-35 328,-77 819,-296 982,-602 106,-202 79,-453 -43,-615 -104,-140 -267,-236 -433,-303l-41 -20c-48,-13 -91,-26 -148,-37 -178,-35 -13,4 87,-319 69,-224 2,-383 -137,-558 -113,-141 -254,-254 -412,-349 -82,-49 -166,-85 -271,-108 -67,-14 -98,-14 -176,-14 -116,0 -129,10 -179,11 172,-325 -48,-689 -299,-761 -52,-15 -133,-13 -184,-1 -70,16 -89,26 -146,55 -161,81 -287,320 -318,487 -71,386 56,585 65,690 -52,-2 -88,-13 -157,-12 -293,4 -590,255 -614,559 -14,183 82,410 141,529 61,121 112,200 208,295 29,29 64,49 75,92 -52,4 -92,42 -129,71 -286,223 -196,644 -28,924 75,124 161,262 282,343 87,59 179,99 297,128 221,53 511,76 715,-48z"/>
   <path class="fil5" d="M13825 7348l-6 -187c-149,102 -178,127 -397,155 -145,19 -371,-12 -446,-103 -83,36 -178,147 -318,101 -116,-37 -141,-188 -87,-309 -341,-9 -638,-181 -858,-365 -50,-41 -69,-79 -110,-125l-218 -265c-48,19 -128,76 -168,104 -218,154 -376,329 -533,539 -79,106 -141,218 -197,339 -30,67 -58,117 -84,185 -26,70 -44,127 -71,196 -25,61 -51,136 -67,202 -36,148 -52,326 1,473 44,123 148,220 250,287 89,58 274,125 399,147 424,73 984,-90 1346,-241 360,-150 990,-626 1283,-873 103,-86 192,-164 281,-260z"/>
   <path class="fil5" d="M11057 4991c46,84 205,224 264,299l342 384 291 256c485,363 592,270 732,345l61 -12c-17,-95 -26,-152 15,-241 80,-173 224,-137 326,25 48,76 50,141 84,204 212,-85 374,-285 733,19 24,20 -2,3 27,22 99,-16 237,-43 290,-106l-197 -171c-132,-110 -460,-448 -576,-563l-419 -452c-27,-29 -33,-44 -61,-73l-308 -318c-160,-141 -317,-278 -496,-398 -53,-35 -93,-62 -150,-96 -253,-153 -655,-291 -954,-308 -160,-9 -288,17 -317,186 -41,246 142,507 346,645 103,71 216,120 341,162 97,32 304,91 423,91l0 11c-52,0 -141,7 -198,14 -146,19 -349,31 -499,59 -42,8 -57,15 -100,16z"/>
   <path class="fil7" d="M9439 17719c-255,26 -511,14 -630,189 -45,66 -79,98 -85,196 -19,293 49,723 107,1002 102,491 126,447 625,480 354,24 699,26 1045,-32 140,-23 298,-74 427,-120 134,-48 300,-70 323,-224 35,-237 -406,-883 -567,-1086 -235,-296 -823,-447 -1245,-405z"/>
   <path class="fil8" d="M2470 16981c-274,67 -411,61 -647,-51l-12 214c-1,200 -2,582 10,738 12,160 1,566 2,770 0,172 -23,330 -34,481 -4,68 -7,170 -18,239 -22,148 -4,347 -24,489l-14 243c-1,282 198,212 492,212 120,0 371,5 444,-69 57,-56 47,-104 47,-210 0,-97 -12,-160 -11,-245 1,-196 -12,-293 -11,-481 1,-176 -41,-759 -66,-939 -49,-347 -94,-528 -123,-905l-35 -486z"/>
   <path class="fil9" d="M16658 22495c-186,50 -386,3 -570,-9 -1,53 -18,153 -27,216 -12,78 -21,143 -34,223 -23,152 -40,307 -59,455 -29,232 -23,438 -73,687 -37,188 -25,306 -30,472l-12 245c0,277 -11,783 0,1028 4,82 27,141 98,160l469 -18c69,-9 305,21 305,-208 1,-86 -1,-172 0,-258 1,-157 -24,-333 -23,-491 1,-95 -11,-147 -11,-246 0,-89 2,-177 -8,-249 -20,-148 14,-349 -6,-496l3 -1009c0,-182 -22,-328 -22,-502z"/>
   <path class="fil10" d="M19417 25508c-223,11 -363,-15 -570,-46 -1,51 -10,49 -11,104l0 235c-3,50 -11,53 -12,111 -1,78 1,157 1,235l-21 460c-4,40 -1,81 -1,121l-37 567c-18,133 -26,299 -30,450 -2,53 -9,51 -12,100 -2,38 0,84 0,123 0,71 6,176 -3,243 -19,141 -12,316 52,411 95,140 603,216 735,52 86,-107 49,-251 27,-400 -19,-131 -20,-357 -33,-447 -12,-76 -3,-149 -7,-228l-22 -458c0,-78 4,-169 0,-246l-22 -570c-1,-57 -9,-61 -12,-111 -4,-77 7,-169 -1,-244 -16,-137 -21,-308 -21,-462z"/>
   <path class="fil11" d="M14242 5214c58,35 187,141 260,123 104,56 200,-7 268,-45 27,-40 36,-37 63,-92 21,-41 39,-69 53,-115 24,-81 50,-190 60,-273l50 -303c258,15 444,-484 248,-538 -294,-82 -776,-233 -970,-473 -24,-29 -44,-69 -64,-102 -26,35 -103,271 -284,494 -81,100 -271,312 -422,361 40,184 71,48 -12,222 -67,140 -69,391 117,460 106,39 191,-7 279,-30 125,120 123,124 263,238 32,26 65,46 91,73z"/>
   <path class="fil12" d="M10592 5138c42,30 174,201 213,254 159,213 258,396 373,554l194 274c8,30 1,11 13,30l218 265c41,46 60,84 110,125 220,184 517,356 858,365l11 -38c-75,-24 -116,-88 -98,-185 18,-89 75,-137 115,-182 -34,-55 -69,-103 -41,-191 24,-78 64,-97 128,-134 -140,-75 -247,18 -732,-345l-291 -256 -342 -384c-59,-75 -218,-215 -264,-299 -48,-81 -261,-260 -343,-312 -253,-162 -463,-168 -763,-16l-346 157c-42,21 -70,34 -112,55 -82,42 -63,42 -163,83 -40,17 -34,2 -45,44 43,10 37,24 89,23 35,-1 56,-15 90,-23 -20,29 -30,29 -50,54 -85,106 166,-4 230,-52 95,-71 51,-57 140,-72 28,-5 59,-16 93,-19 -14,53 -58,79 -80,124 -76,162 174,-26 200,-48 81,-67 151,-139 270,-131 61,4 91,39 127,74l100 101c35,37 72,63 98,105z"/>
   <path class="fil7" d="M8085 17947c-197,36 -354,161 -465,258 -132,115 -211,224 -270,456 -44,173 -82,456 -86,639 -8,293 250,228 490,231 95,1 619,-15 676,-35 190,-67 111,-365 94,-565 -19,-223 -22,-449 -54,-669 -15,-103 -31,-175 -112,-247 -61,-54 -168,-87 -273,-68z"/>
   <path class="fil13" d="M7322 21610c158,-47 258,492 130,501 -76,5 -132,-156 -156,-230 -30,-94 -90,-236 26,-271zm-345 -10c109,-35 102,129 37,199 -26,27 -160,131 -204,144 -59,17 -101,-12 -94,-72 7,-65 197,-250 261,-271zm599 -121c354,12 349,276 7,137 -49,-20 -205,-64 -153,-126 29,-34 57,-14 146,-11zm-882 -345c9,-49 62,-61 117,-43 54,19 59,47 94,74 71,56 157,67 155,182 -136,118 -386,-109 -366,-213zm886 -159c113,-54 167,71 96,146 -53,57 -112,95 -187,136 -227,124 -92,-196 91,-282zm-415 -224c52,-27 103,-4 123,32 23,41 22,110 17,157 -15,129 41,260 -54,272 -129,17 -246,-380 -86,-461zm-708 906c25,357 398,666 775,618 130,-17 161,-15 292,-56 96,-29 161,-70 237,-120 144,-95 242,-267 262,-442 -18,-172 -1,-244 -58,-411 -105,-308 -371,-636 -735,-643 -142,-2 -265,57 -350,124 -300,234 -463,479 -423,930z"/>
   <path class="fil13" d="M11320 21648c128,-30 124,51 145,163 15,80 46,209 -33,240 -124,49 -215,-227 -112,-403zm-290 -138c49,-14 96,8 72,74 -6,16 -179,232 -309,209 -48,-8 -99,-37 -92,-91 5,-42 53,-57 90,-80 86,-57 123,-79 239,-112zm849 174c-137,66 -403,-94 -339,-172 33,-40 189,-4 234,12 83,31 128,60 105,160zm-1198 -635c126,-94 182,-8 267,50 91,63 229,115 205,180 -43,117 -507,26 -472,-230zm836 273c-21,-47 -12,-60 15,-110 23,-42 128,-292 250,-186 76,66 -31,161 -73,195 -63,50 -131,111 -192,101zm-215 -77c-38,-59 -63,-158 -77,-246 -13,-82 -68,-202 39,-214 108,-12 96,144 97,224 4,191 50,244 -59,236zm-843 222c-9,215 103,387 236,522 215,217 618,248 898,155 212,-70 393,-278 461,-488 8,-24 18,-59 21,-80 6,-45 2,-60 14,-97 -22,-27 -13,-136 -21,-181 -10,-58 -26,-115 -45,-167 -39,-103 -99,-208 -156,-270 -102,-112 -362,-232 -587,-248 -469,-34 -822,464 -821,854z"/>
   <path class="fil14" d="M12997 27957c-26,39 -37,376 -37,435 1,242 -17,375 216,500 196,105 483,65 690,48 133,-11 131,6 326,-31 142,-27 237,-38 304,-176 71,-144 73,-652 73,-887 -250,13 -510,65 -771,81 -104,6 -775,18 -801,30z"/>
   <path class="fil12" d="M18409 5795l-233 44c-72,11 -146,23 -218,39 -137,29 -303,54 -445,68 -162,15 -335,24 -498,24 -103,0 -425,-20 -499,-4l-14 28c81,42 141,121 124,214l-24 57c-14,26 0,-8 -11,22 63,70 119,197 46,281 -24,27 -62,34 -46,59 74,16 339,-30 419,-43 145,-24 272,-41 412,-69 70,-14 124,-26 189,-46l378 -102c173,-48 366,-119 517,-210l223 -134c29,-18 50,-25 80,-43 197,-117 196,-64 344,-136 74,-37 277,-113 331,-149 -13,-25 -19,-34 -34,-56 -110,0 -131,45 -256,45 9,-35 27,-48 53,-70 106,-93 329,-129 377,-271 27,-78 1,-63 15,-97 13,-30 41,-32 46,-87 -85,2 -23,7 -78,-34 -80,19 -280,167 -367,214 -141,76 5,-36 -219,139 -156,122 -251,249 -420,283l-192 34z"/>
   <path class="fil12" d="M16848 11570l108 126c44,43 80,79 123,123l249 232c139,107 422,340 559,407l43 -51c14,-23 23,-39 38,-63 59,-95 188,-275 218,-372 -205,-276 -389,-479 -591,-735 -66,-84 -137,-157 -200,-242 -59,0 -159,33 -230,43 -79,11 -183,11 -251,26l-66 506z"/>
   <path class="fil5" d="M11372 6220l-194 -274c-115,-158 -214,-341 -373,-554 -39,-53 -171,-224 -213,-254 -114,19 -416,210 -524,290 -237,176 -134,326 34,511l16 17c2,2 4,4 6,6 58,56 131,115 203,154 102,54 175,85 298,115 367,89 586,-11 747,-11z"/>
   <path class="fil15" d="M4247 5281c0,46 25,72 46,99 62,82 83,112 88,203 13,211 23,303 -66,516 -46,112 -123,160 -106,214 56,178 341,-229 889,139 214,144 141,147 225,211 23,17 49,32 73,31 63,-3 57,-50 57,-83 0,-46 -91,-82 -149,-186 -114,-206 -105,-534 52,-727 59,-73 146,-137 137,-190 -21,-116 -215,-20 -292,2 -233,66 -452,64 -657,-79 -109,-75 -190,-194 -242,-194 -23,0 -55,32 -55,44z"/>
   <path class="fil16" d="M19422 10967l-161 239c-24,80 -67,89 -67,197 60,40 117,89 180,132 33,22 64,37 91,66l207 272 239 242c72,71 305,383 454,315 67,-31 93,-134 77,-243 -36,-247 -262,-506 -430,-675l-168 -157c-150,-149 -6,-88 -125,-354 -18,-40 -35,-63 -58,-99 -94,-140 -141,-112 -239,65z"/>
   <path class="fil12" d="M18259 10319c163,136 102,67 245,221l243 226c27,21 33,29 58,53l190 168c25,23 36,27 62,50l204 169 161 -239c-92,-117 -262,-385 -342,-512l-327 -533c-38,-63 -65,-115 -105,-175 -40,-59 -76,-118 -114,-177 -24,-6 -182,31 -224,45 4,139 43,208 21,378 -13,95 -71,266 -72,326z"/>
   <path class="fil16" d="M18186 11972c-30,97 -159,277 -218,372 -15,24 -24,40 -38,63l-43 51c-13,117 -10,80 69,159 60,60 75,76 154,115 178,88 67,13 139,386 22,116 42,362 89,436 67,107 243,120 273,-120 9,-76 12,-168 21,-236 12,-85 -5,-177 8,-260l37 -483c-5,-71 -47,-125 -85,-172l-236 -300c-54,-71 -113,-83 -170,-11z"/>
   <path class="fil15" d="M6436 7661c90,0 224,-123 447,-123 143,0 304,158 354,260 36,73 84,273 160,311 36,18 141,12 56,-158 -93,-184 -148,-305 -45,-503 144,-277 458,-146 458,-290 0,-134 -321,31 -595,-243 -118,-118 -209,-223 -244,-393 -12,-61 -10,-124 -88,-124 -76,0 -43,100 -44,168 -1,54 -8,59 -11,101 -16,188 26,247 -98,506 -42,89 -124,217 -200,269 -55,38 -85,56 -147,88 -108,56 -34,131 -3,131z"/>
   <path class="fil15" d="M6213 3494c0,48 38,85 54,124 49,115 91,318 91,446 0,88 -56,221 -90,279 -21,37 -51,74 -80,109 -107,131 -93,85 -76,159 170,40 248,-201 592,-22 155,80 198,127 276,283 47,95 59,164 138,164 113,0 12,-240 -18,-362 -15,-60 -27,-103 -39,-162 -37,-176 -81,-305 48,-456 33,-38 80,-54 105,-98 30,-53 -12,-106 -63,-106 -254,0 -347,222 -638,-144 -40,-50 -73,-95 -112,-145 -38,-48 -58,-125 -132,-125 -26,0 -56,30 -56,56z"/>
   <path class="fil17" d="M14502 5337c10,64 41,129 63,194 23,70 35,134 25,229 -16,150 -71,259 -163,337 23,42 128,68 187,76 90,13 169,2 236,-40 67,-42 211,-219 243,-304l-83 -101c-77,-75 -182,-323 -240,-436 -68,38 -164,101 -268,45z"/>
   <path class="fil15" d="M5040 7359c-45,-30 -67,-100 -123,-100 -94,0 27,174 45,201 -123,0 -170,-1 -269,22l0 22c62,15 116,43 190,45 -28,43 -45,34 -81,65 -22,20 -53,80 26,80 99,0 125,-61 189,-78 0,167 -60,402 56,402 85,0 56,-215 56,-301 82,21 49,122 157,122 34,0 44,-32 44,-67 0,-24 -74,-122 -89,-145 179,42 202,135 290,34 -20,-87 -144,-122 -241,-149 -47,-14 -70,-9 -94,-41 31,-8 48,-28 76,-47 55,-38 133,-67 144,-114 6,-31 -11,-74 -63,-74 -48,0 -155,87 -202,112 0,-73 12,-101 -33,-134 -74,20 -50,87 -78,145z"/>
   <path class="fil15" d="M8938 7538c-57,-38 -41,-63 -125,-143 -101,-97 -55,58 -31,109 -36,-8 -81,-21 -123,-22 -20,86 84,128 157,145 -13,46 -23,35 -59,64 -28,24 -49,37 -53,81 82,0 124,-18 179,-44 0,77 -71,301 11,301 68,0 84,-60 89,-123 49,36 21,67 101,67 117,0 -37,-235 -45,-268 111,10 232,112 313,112 14,0 146,-57 -41,-149 -54,-26 -88,-49 -149,-63 12,-11 -4,0 19,-14 11,-7 7,-5 22,-13 18,-9 26,-12 44,-22 36,-18 60,-25 94,-40 95,-42 76,-135 0,-135 -53,0 -232,98 -280,123 9,-101 45,-179 45,-290 -50,13 -81,102 -100,145 -22,48 -55,126 -68,179z"/>
   <path class="fil15" d="M7810 5728l0 0zm302 -301l0 0zm-302 301c-2,83 -31,54 11,134 73,0 90,-18 112,-111 31,44 71,232 109,282 30,40 45,30 92,19 21,-88 -11,-129 -38,-208 -18,-55 -58,-161 -62,-216 109,25 133,118 257,89 7,-33 11,-34 11,-78 -40,-26 -133,-68 -157,-101 15,-1 251,-71 272,-110 27,-49 -7,-63 -26,-91 -90,2 -194,70 -279,90 7,-30 62,-132 -30,-111 -48,11 -68,73 -104,100 -7,-83 -24,-177 -78,-213 -81,55 -34,140 -34,235 -34,-16 -186,-34 -146,31 22,37 114,60 157,81 -28,41 -118,83 -171,131 -61,55 -30,58 -30,58 36,50 82,2 134,-11z"/>
   <path class="fil18" d="M4101 19166c-36,-3 -134,-44 -134,67 0,43 37,82 56,112 -29,19 -63,48 -64,90 -4,112 157,68 176,66 0,77 27,108 89,123 56,-38 67,-65 67,-157 261,0 148,-211 0,-223 0,-225 -186,-239 -190,-78z"/>
   <path class="fil19" d="M12919 19970c8,108 99,244 199,258 96,14 122,-23 145,-90 22,-66 41,-88 38,-178 -9,-333 -410,-357 -382,10z"/>
   <path class="fil18" d="M3342 19758c0,59 11,80 33,123 -145,34 -93,201 0,201 70,0 82,-40 123,-67 18,77 47,111 112,111 11,-49 10,-55 -11,-100 32,0 57,5 82,-7 35,-18 82,-91 -49,-161 15,-61 36,-85 -13,-143 -41,-48 -103,-47 -121,21l-22 0c-12,-43 -35,-57 -78,-68 -30,20 -56,40 -56,90z"/>
   <path class="fil20" d="M5603 20043c-30,-26 -165,-62 -209,-21 -37,36 -25,193 -19,250 7,63 6,184 56,211 61,33 192,18 236,-7 19,-78 -15,-133 -28,-212 -11,-67 -8,-173 -36,-221z"/>
   <path class="fil19" d="M10681 21049c-35,256 429,347 472,230 24,-65 -114,-117 -205,-180 -85,-58 -141,-144 -267,-50z"/>
   <path class="fil19" d="M7322 21610c-116,35 -56,177 -26,271 24,74 80,235 156,230 128,-9 28,-548 -130,-501z"/>
   <path class="fil19" d="M7165 20751c-160,81 -43,478 86,461 95,-12 39,-143 54,-272 5,-47 6,-116 -17,-157 -20,-36 -71,-59 -123,-32z"/>
   <path class="fil21" d="M5107 21109c-16,-95 35,-232 43,-335 -32,-16 -180,-17 -215,-4 -85,31 -46,200 -28,260 28,89 98,63 200,79z"/>
   <path class="fil19" d="M6977 21600c-64,21 -254,206 -261,271 -7,60 35,89 94,72 44,-13 178,-117 204,-144 65,-70 72,-234 -37,-199z"/>
   <path class="fil19" d="M11320 21648c-103,176 -12,452 112,403 79,-31 48,-160 33,-240 -21,-112 -17,-193 -145,-163z"/>
   <path class="fil18" d="M4269 20473c-135,31 -99,167 22,167 3,132 104,81 112,-11 147,0 172,-156 0,-156 0,-160 -134,-162 -134,0z"/>
   <path class="fil19" d="M11030 21510c-116,33 -153,55 -239,112 -37,23 -85,38 -90,80 -7,54 44,83 92,91 130,23 303,-193 309,-209 24,-66 -23,-88 -72,-74z"/>
   <path class="fil19" d="M7060 21347c2,-115 -84,-126 -155,-182 -35,-27 -40,-55 -94,-74 -55,-18 -108,-6 -117,43 -20,104 230,331 366,213z"/>
   <path class="fil19" d="M7580 20975c-183,86 -318,406 -91,282 75,-41 134,-79 187,-136 71,-75 17,-200 -96,-146z"/>
   <path class="fil19" d="M11302 21245c109,8 63,-45 59,-236 -1,-80 11,-236 -97,-224 -107,12 -52,132 -39,214 14,88 39,187 77,246z"/>
   <path class="fil19" d="M11517 21322c61,10 129,-51 192,-101 42,-34 149,-129 73,-195 -122,-106 -227,144 -250,186 -27,50 -36,63 -15,110z"/>
   <path class="fil19" d="M11879 21684c23,-100 -22,-129 -105,-160 -45,-16 -201,-52 -234,-12 -64,78 202,238 339,172z"/>
   <path class="fil19" d="M7430 21490c-52,62 104,106 153,126 342,139 347,-125 -7,-137 -89,-3 -117,-23 -146,11z"/>
  </g>
 </g>
</svg>
